<svg version="1.2" xmlns="http://www.w3.org/2000/svg" viewBox="0 0 97 97" width="194" height="194">
	<title>New Project</title>
	<style>
		.s0 { fill: #e71d34 } 
		.s1 { fill: #ffffff } 
	</style>
	<path id="Shape 1" class="s0" d="m48.5 97c-26.8 0-48.5-21.7-48.5-48.5 0-26.8 21.7-48.5 48.5-48.5 26.8 0 48.5 21.7 48.5 48.5 0 26.8-21.7 48.5-48.5 48.5z"/>
	<path id="RB" class="s1" aria-label="RB"  d="m51.3 55.2q0.4 0 0.7 0.4 0.3 0.4 0.3 1.2 0 1.3-0.7 2.1-1.7 2.1-3.4 3.2-1.7 1.1-4.1 1.1-2.2 0-3.9-1.3-1.5-1.2-3-4.2-1.1-2.3-1.8-3.5-0.6-1.1-1.3-1.6-0.6-0.5-1.6-0.6-0.1 0.7-0.8 4.6-0.3 1.8-0.3 2.2-0.4 2.1-1.4 3.3-1.1 1.1-3.2 1.1-2.4 0-4.2-1.4-1.8-1.4-2.8-3.8-0.9-2.5-0.9-5.7 0-5.9 2-10.1 2.1-4.3 5.7-6.5 3.7-2.3 8.6-2.3 3.3 0 5.6 1 2.3 1 3.4 2.8 1.1 1.8 1.1 4 0 2-1 3.9-0.9 1.8-2.7 3.3-1.9 1.4-4.5 2.1 1.6 0.5 2.6 1.5 0.9 1 1.8 3 1 2 1.9 3 1 1 2.2 1 1.2 0 2.2-0.7 1-0.8 2.5-2.6 0.4-0.5 1-0.5zm-24.6 2l1-5.2q-1.2 0-1.7-0.6-0.4-0.5-0.4-1.2 0-0.9 0.5-1.4 0.6-0.5 1.3-0.5h0.9q0.5-3.4 1-5.9 0.5-2.3 3-2.3 2 0 2 1.8 0 0.4-0.1 0.6l-1 5.8q1.9-0.1 3.4-0.9 1.6-0.8 2.5-2.2 0.9-1.5 0.9-3.3 0-2.2-1.5-3.4-1.5-1.3-4.4-1.3-3.4 0-6 1.7-2.6 1.7-4 5.1-1.4 3.3-1.4 8.1 0 2.2 0.4 3.8 0.5 1.6 1.2 2.4 0.6 0.8 1.2 0.8 0.5 0 0.7-0.4 0.4-0.5 0.5-1.5zm51.4-16.6q0 3-2.1 5.1-2.1 2.2-6.1 3.1 2.2 0.6 3.3 2 1.1 1.3 1.1 3.1 0 2.7-1.7 4.8-1.8 2-5.1 3.1-3.3 1.1-8 1.1-1.8 0-2.8-0.1 0 1-0.8 1.5-0.8 0.5-2.1 0.5-1.3 0-1.8-0.6-0.4-0.6-0.3-1.7 0.3-4.9 1.2-10.2 0.9-5.4 2.3-10.4 0.2-0.9 1-1.2 0.7-0.4 1.9-0.4 2.1 0 2.1 1.2 0 0.5-0.2 1.1-0.9 2.8-1.8 7.4-0.9 4.7-1.3 8.9 1.7 0.2 2.7 0.2 4.9 0 7.2-1.4 2.3-1.5 2.3-3.7 0-1.5-1.3-2.5-1.3-1.1-4.4-1.2-0.7 0-1-0.4-0.2-0.3-0.2-1 0-1 0.4-1.6 0.4-0.6 1.5-0.7 2.5-0.1 4.5-0.7 2-0.7 3.2-1.9 1.1-1.2 1.1-2.8 0-2-2-3.2-2-1.2-6.1-1.2-3.7 0-7.2 1-3.5 0.9-6 2.4-1.1 0.7-1.9 0.7-0.6 0-0.9-0.4-0.4-0.5-0.4-1.2 0-0.8 0.4-1.5 0.4-0.6 1.8-1.4 2.9-1.7 6.9-2.6 3.9-1 8.1-1 6.3 0 9.4 2.2 3.1 2.1 3.1 5.6z"/>
</svg>