<svg width="150" height="150" viewBox="0 0 150 150" fill="none" xmlns="http://www.w3.org/2000/svg" style="width: 372px; height: 372px;"><style>
     .email7-a {animation:email7 6s 3.4s ease-in infinite;transform:translate3d(0, 140px, 0);}
     .email7-b {animation:email7 6s .9s ease-in infinite;transform:translate3d(0, 140px, 0);}
     .email7-c {animation:email7 6s 1.7s ease-in infinite;transform:translate3d(0, 140px, 0);}
     .email7-d {animation:email7 6s 2.2s ease-in infinite;transform:translate3d(0, 140px, 0);}
     .email7-e {animation:email7 6s 2.8s ease-in infinite;transform:translate3d(0, 140px, 0);}
     .email7-f {animation:email7 6s 3.2s ease-in infinite;transform:translate3d(0, 140px, 0);}
     .email7-g {animation:email7 6s .4s ease-in infinite;transform:translate3d(0, 140px, 0);}
     @keyframes email7 {
         0%{transform:translate3d(0, 140px, 0);}
         90%{transform:translate3d(0, -200px, 0);}
         100%{transform:translate3d(0, -200px, 0);}
     }
     @media (prefers-reduced-motion: reduce) {
         .email7-a, .email7-b, .email7-c, .email7-d, .email7-e, .email7-f, .email7-g {
             animation: none;
         }
     }
    </style><g class="email7-f" style="animation-duration: 7s;"><path class="fillCls7" d="M31.9141 125.343H59.3241V111.638H31.9141V125.343Z" fill="rgba(237,192,114,1)" stroke-width="2px"></path><path class="fillCls8" d="M31.9141 111.638L45.4654 118.491L59.3241 111.638H31.9141Z" fill="rgba(255,221,153,1)" stroke-width="2px"></path></g><g class="email7-c" style="animation-duration: 7s;"><path class="fillCls7" d="M110.061 135.841H137.471V122.136H110.061V135.841Z" fill="rgba(237,192,114,1)" stroke-width="2px"></path><path class="fillCls8" d="M110.061 122.136L123.612 128.988L137.471 122.136H110.061Z" fill="rgba(255,221,153,1)" stroke-width="2px"></path></g><g class="email7-d" style="animation-duration: 7s;"><path class="fillCls7" d="M57.5742 139.34H84.9843V125.635H57.5742V139.34Z" fill="rgba(237,192,114,1)" stroke-width="2px"></path><path class="fillCls8" d="M57.5742 125.635L71.1256 132.487L84.9843 125.635H57.5742Z" fill="rgba(255,221,153,1)" stroke-width="2px"></path></g><path class="fillCls3" d="M55.6641 81.2593L52.7008 81.9959C52.9687 83.352 53.856 85.2941 54.1239 86.6502C54.2243 87.1525 54.308 87.6882 54.1071 88.157C53.9397 88.542 53.6216 88.8099 53.3035 89.0778L48.7999 90.2162C49.704 92.8447 51.6963 96.076 52.7845 98.6375C48.4818 99.3072 44.2293 100.295 40.0773 101.584C38.8551 94.519 36.9465 87.5877 34.4185 80.8909C34.0669 79.9701 33.7153 79.0326 33.6483 78.0615C33.5981 77.1574 33.799 76.2534 34.0836 75.3995C35.2891 71.7163 37.8339 68.4683 41.1488 66.4593C42.6388 65.5552 44.3298 64.8855 46.0542 64.9358C50.9596 65.1032 49.637 68.7529 50.2732 72.1181C50.9596 75.6339 52.8515 78.9656 55.6641 81.2593Z" fill="#FDC485" stroke-width="2px" style="animation-duration: 7s;"></path><path class="fillCls2" d="M46.9252 77.9108C47.461 77.9108 47.461 77.0737 46.9252 77.0737C46.3895 77.0905 46.3895 77.9108 46.9252 77.9108Z" fill="#0A2A3C" stroke-width="2px" style="animation-duration: 7s;"></path><path class="fillCls2" d="M47.6309 85.3546L47.8156 85.042C47.8156 85.042 48.4987 85.4229 48.9547 85.6292C49.3955 85.8285 50.1073 86.0831 50.1073 86.0831L50.0692 86.4202C50.0692 86.4202 49.2363 86.1413 48.7236 85.9119C48.2864 85.7162 47.6309 85.3546 47.6309 85.3546Z" fill="#0A2A3C" stroke-width="2px" style="animation-duration: 7s;"></path><path class="fillCls2" d="M54.827 61.9056C54.7433 61.2192 54.375 60.5327 53.7723 60.2146C52.751 59.6622 51.5121 60.2816 50.5076 60.8843C49.118 61.7214 47.7117 62.5753 46.3221 63.4124C46.0375 63.0775 46.389 62.6088 46.7071 62.3074C47.0085 62.006 47.2596 61.4368 46.8913 61.2192C46.7239 61.1187 46.5062 61.1689 46.3221 61.2359C44.0954 61.9726 42.0863 63.5463 39.7424 63.63C38.8886 63.6635 38.0348 63.4793 37.1977 63.6802C36.4443 63.8477 35.7913 64.3164 35.1719 64.802C34.318 65.4884 33.4809 66.2585 32.9954 67.2296C32.5099 68.2173 32.4094 69.4395 32.9787 70.3771C31.8067 69.8581 30.4171 70.0087 29.2787 70.5947C28.1402 71.1974 27.2696 72.202 26.6836 73.3404C26.2316 74.211 25.9303 75.182 26.014 76.1698C26.0809 76.9734 26.399 77.7268 26.8176 78.4133C28.3244 80.8408 31.3045 82.2807 34.1339 81.9291C33.7823 81.9793 34.7533 84.5743 34.8705 84.792C35.1384 85.2607 36.2768 87.0354 36.7791 86.2653C37.0302 85.8802 37.2311 85.4784 37.3986 85.0431C37.8841 85.3612 38.537 85.4114 39.0728 85.1938C39.6085 84.9761 40.0271 84.4739 40.1275 83.8879C39.8262 84.206 39.3574 84.2897 38.9221 84.2395C37.6162 84.0721 36.528 82.6992 36.4443 81.3933C36.3773 80.4223 37.0302 79.535 37.8004 78.9155C37.9845 78.7648 38.1854 78.6309 38.4031 78.5472C38.6207 78.4635 38.8551 78.4467 39.0728 78.43C40.161 78.3295 41.0483 78.2961 41.9691 77.6096C42.7895 77.0069 43.409 76.1363 43.794 75.1988C44.3633 73.8594 44.5139 72.4029 44.5474 70.9463C44.7148 71.1974 44.9994 71.3481 45.2841 71.4653C47.3936 72.2857 49.9049 71.482 51.5289 69.9083C53.1696 68.3345 54.0569 66.1413 54.6094 63.9481C54.7768 63.2784 54.9275 62.592 54.827 61.9056Z" fill="#0A2A3C" stroke-width="2px" style="animation-duration: 7s;"></path><path class="fillCls1" d="M34.8203 100.647L29.2787 102.857C27.119 103.71 25.2941 105.217 24.0385 107.176C18.7145 115.48 4.40003 138.601 5.01949 146.938C5.01949 146.938 11.1434 149.897 24 150L25.9973 141.179H28.8099L54.8606 141.363L61.6076 140.777H70.4642L72.8918 112.517L65.3913 100.63L56.7189 97.7L45.5018 100.061L34.8203 100.647Z" fill="#F26C5D" stroke-width="2px" style="animation-duration: 7s;"></path><path class="fillCls3" d="M26.8344 141.162L50.0724 141.313L59.5149 140.76C60.7203 141.012 61.7751 141.765 62.4113 142.82L70.0959 144.678L67.9696 147.139C67.6013 147.575 67.0655 147.842 66.4963 147.893C63.5162 148.177 53.8896 148.947 50.0724 146.905L24 150L25.9806 141.146H26.8344V141.162Z" fill="#FDC485" stroke-width="2px" style="animation-duration: 7s;"></path><path class="fillCls2" d="M48.7894 90.3803V90.0494C48.7894 90.0494 46.4528 90.2896 44.9877 90.0494C43.1387 89.7462 40.5114 88.3225 40.5114 88.3225L40.3203 88.6025C40.3203 88.6025 43.0612 90.0753 44.9877 90.3803C46.4541 90.6125 48.7894 90.3803 48.7894 90.3803Z" fill="#0A2A3C" stroke-width="2px" style="animation-duration: 7s;"></path><path class="fillCls3" d="M68.0529 90.8525L53.7049 85.177L52.0307 88.9607C51.7294 89.6471 52.0307 90.4507 52.7171 90.7521L52.9181 90.8525L53.4538 90.1996L55.6637 95.1218C55.6637 95.1218 60.2511 96.2435 64.7044 95.1218C64.7044 95.1218 67.6845 121.29 70.5139 126.714H73.1592L75.118 108.984L68.0529 90.8525Z" fill="#FDC485" stroke-width="2px" style="animation-duration: 7s;"></path><path class="fillCls4" d="M39.2235 97.1475L49.5869 99.1732L48.281 103.225L33.6484 101.567L39.2235 97.1475Z" fill="#EAF1FA" stroke-width="2px" style="animation-duration: 7s;"></path><path class="fillCls4" d="M49.5859 99.1732L51.9131 96.7456L57.823 97.1474L54.8597 101.567L49.5859 99.1732Z" fill="#EAF1FA" stroke-width="2px" style="animation-duration: 7s;"></path><path class="fillCls2" d="M25.9268 141.375L26.0268 141.015H22.2431C22.2431 141.015 26.484 135.367 28.5892 131.386C31.2714 126.313 33.8142 117.652 33.8142 117.652L33.4939 117.512C33.4939 117.512 30.9849 126.21 28.2488 131.265C25.9625 135.49 21.2422 141.375 21.2422 141.375H25.9268Z" fill="#0A2A3C" stroke-width="2px" style="animation-duration: 7s;"></path><path class="fillCls6" d="M99.0572 145.53L100.591 135.914H111.23L109.594 145.53H130.383C131.767 145.53 132.823 146.767 132.605 148.134C132.432 149.227 131.489 150.031 130.383 150.031H73.5401C72.0959 150.031 71.0255 148.69 71.3456 147.281C71.5785 146.257 72.4894 145.53 73.5401 145.53H99.0572Z" fill="rgba(89,90,90,1)" stroke-width="2px" style="animation-duration: 7s;"></path><path class="fillCls5" d="M68.3295 140.761C68.1029 140.761 67.8763 140.654 67.7296 140.481C67.583 140.307 67.5164 140.067 67.5564 139.841L75.461 93.4925C75.5277 93.1193 75.8476 92.8394 76.2342 92.8394H149.216C149.442 92.8394 149.669 92.946 149.816 93.1193C149.962 93.2926 150.029 93.5325 149.989 93.7591L142.084 140.107C142.018 140.481 141.698 140.761 141.311 140.761H68.3295Z" fill="rgba(114,117,116,1)" stroke-width="2px" style="animation-duration: 7s;"></path><path class="fillCls2" d="M54.5673 76.7625C54.6124 77.9846 54.1583 79.8672 54.1583 79.8672L53.8693 79.5303C53.8693 79.5303 54.1925 77.8487 54.1583 76.7625C54.1243 75.6829 53.7008 74.0347 53.7008 74.0347H51.647L51.7593 76.3934L51.3742 75.5911L51.3262 73.6416H53.9095C53.9095 73.6416 54.5215 75.5177 54.5673 76.7625Z" fill="#0A2A3C" stroke-width="2px" style="animation-duration: 7s;"></path><path class="fillCls2" d="M51.4119 75.6648L49.5684 76.0012L49.6244 76.3702L51.6218 76.0939L51.4119 75.6648Z" fill="#0A2A3C" stroke-width="2px" style="animation-duration: 7s;"></path><path class="fillCls2" d="M44.3868 80.8781C42.9861 80.0923 41.6992 77.7653 41.6992 77.7653L41.98 77.5808C41.98 77.5808 43.2417 79.844 44.6115 80.5973C45.4025 81.0323 45.9186 81.2061 46.8177 81.2873C47.6847 81.3655 49.032 81.0305 49.032 81.0305C49.032 81.0305 49.3598 79.0462 49.3449 77.7653C49.3301 76.4907 48.9598 74.5241 48.9598 74.5241C48.9598 74.5241 47.0281 74.6071 45.855 74.9574C44.7963 75.2735 43.2797 76.1287 43.2797 76.1287L43.5685 75.5992C43.5685 75.5992 44.9216 74.8856 45.855 74.6124C47.1533 74.2323 49.2967 74.2192 49.2967 74.2192C49.2967 74.2192 49.7357 76.3698 49.738 77.7653C49.7403 79.1794 49.2967 81.3594 49.2967 81.3594C49.2967 81.3594 47.7619 81.723 46.7776 81.6242C45.8044 81.5265 45.2398 81.3567 44.3868 80.8781Z" fill="#0A2A3C" stroke-width="2px" style="animation-duration: 7s;"></path><g class="email7-a" style="animation-duration: 7s;"><path class="fillCls7" d="M92.5645 99.3275H119.975V85.6224H92.5645V99.3275Z" fill="rgba(237,192,114,1)" stroke-width="2px"></path><path class="fillCls8" d="M92.5645 85.6224L106.116 92.475L119.975 85.6224H92.5645Z" fill="rgba(255,221,153,1)" stroke-width="2px"></path></g><g class="email7-b" style="animation-duration: 7s;"><path class="fillCls7" d="M62.2402 117.179H89.6503V103.474H62.2402V117.179Z" fill="rgba(237,192,114,1)" stroke-width="2px"></path><path class="fillCls8" d="M62.2402 103.474L75.7916 110.326L89.6503 103.474H62.2402Z" fill="rgba(255,221,153,1)" stroke-width="2px"></path></g><g class="email7-e" style="animation-duration: 7s;"><path class="fillCls7" d="M14.418 140.506H41.828V126.801H14.418V140.506Z" fill="rgba(237,192,114,1)" stroke-width="2px"></path><path class="fillCls8" d="M14.418 126.801L27.9693 133.654L41.828 126.801H14.418Z" fill="rgba(255,221,153,1)" stroke-width="2px"></path></g><g class="email7-g" style="animation-duration: 7s;"><path class="fillCls7" d="M7.41992 98.517H34.83V84.812H7.41992V98.517Z" fill="rgba(237,192,114,1)" stroke-width="2px"></path><path class="fillCls8" d="M7.41992 84.812L20.9713 91.6645L34.83 84.812H7.41992Z" fill="rgba(255,221,153,1)" stroke-width="2px"></path></g></svg>